<svg xmlns="http://www.w3.org/2000/svg" version="1.1" xmlns:xlink="http://www.w3.org/1999/xlink" xmlns:svgjs="http://svgjs.dev/svgjs" width="2000" height="2000" viewBox="0 0 2000 2000"><g transform="matrix(1,0,0,1,-0.28443113772425477,-0.28443113772459583)"><svg viewBox="0 0 334 334" data-background-color="#010536" preserveAspectRatio="xMidYMid meet" height="2000" width="2000" xmlns="http://www.w3.org/2000/svg" xmlns:xlink="http://www.w3.org/1999/xlink"><g id="tight-bounds" transform="matrix(1,0,0,1,0.04749999999998522,0.04750000000001364)"><svg viewBox="0 0 333.90454557049503 333.90454557049503" height="333.90454557049503" width="333.90454557049503"><g><svg></svg></g><g><svg viewBox="0 0 333.90454557049503 333.90454557049503" height="333.90454557049503" width="333.90454557049503"><g><path d="M0 166.952c0-92.205 74.747-166.952 166.952-166.952 92.205 0 166.952 74.747 166.953 166.952 0 92.205-74.747 166.952-166.953 166.953-92.205 0-166.952-74.747-166.952-166.953zM166.952 324.168c86.828 0 157.216-70.388 157.216-157.216 0-86.828-70.388-157.216-157.216-157.216-86.828 0-157.216 70.388-157.216 157.216 0 86.828 70.388 157.216 157.216 157.216z" data-fill-palette-color="tertiary" fill="#ffffff" stroke="transparent"></path><ellipse rx="160.27418187383762" ry="160.27418187383762" cx="166.95227278524752" cy="166.95227278524752" fill="#ffffff" stroke="transparent" stroke-width="0" fill-opacity="1" data-fill-palette-color="tertiary"></ellipse></g><g transform="matrix(1,0,0,1,109.60298636847517,71.17305217166896)"><svg viewBox="0 0 114.69857283354469 191.55844122715712" height="191.55844122715712" width="114.69857283354469"><g><svg viewBox="0 0 114.69857283354469 191.55844122715712" height="191.55844122715712" width="114.69857283354469"><g><svg viewBox="0 0 114.69857283354469 191.55844122715712" height="191.55844122715712" width="114.69857283354469"><g><svg viewBox="0 0 114.69857283354469 191.55844122715712" height="191.55844122715712" width="114.69857283354469"><g id="textblocktransform"><svg viewBox="0 0 114.69857283354469 191.55844122715712" height="191.55844122715712" width="114.69857283354469" id="textblock"><g><svg viewBox="0 0 114.69857283354469 191.55844122715712" height="191.55844122715712" width="114.69857283354469"><g transform="matrix(1,0,0,1,0,0)"><svg width="114.69857283354469" viewBox="-2.95 -41 34.95 57.699999999999996" height="191.55844122715712" data-palette-color="#010536"><path d="M25.6-32.3L25.6-32.3Q24.8-32.65 24.05-32.65 23.3-32.65 22.55-31.7 21.8-30.75 21.55-28.95L21.55-28.95 19.05-11.45Q25.35-14.2 27.1-15.55L27.1-15.55 29-12.25Q27.5-11.1 25.4-10.2 23.3-9.3 21.35-8.53 19.4-7.75 18.45-7.35L18.45-7.35 16.8 4.35Q16.15 9.15 13.38 11.43 10.6 13.7 7.28 13.7 3.95 13.7 2 11.28 0.05 8.85 0.05 5.85L0.05 5.85Q0.05-2 11.55-8.1L11.55-8.1 12.05-12.15Q13-20.75 14-27.1L14-27.1Q11.15-25.95 8.03-25.95 4.9-25.95 2.98-27.65 1.05-29.35 1.05-32.1 1.05-34.85 3.03-36.43 5-38 8-38L8-38Q9.85-38 13.33-36.85 16.8-35.7 18.7-35.7L18.7-35.7Q22.1-35.7 24.4-37.45L24.4-37.45Q25.65-35.7 25.65-33.3L25.65-33.3Q25.65-32.8 25.6-32.3ZM6-30.75L6-30.75Q6-30 6.83-29.45 7.65-28.9 9.33-28.9 11-28.9 13.7-30.4L13.7-30.4Q11.75-30.85 9.7-31.43 7.65-32 7.25-32L7.25-32Q6-32 6-30.75ZM9.8 5.6L11-3.75Q3.85 0.55 3.85 5.35L3.85 5.35Q3.85 6.7 4.55 7.65L4.55 7.65Q5.35 8.75 6.58 8.75 7.8 8.75 8.7 8 9.6 7.25 9.8 5.6L9.8 5.6Z" opacity="1" transform="matrix(1,0,0,1,0,0)" fill="#000000" class="wordmark-text-0" data-fill-palette-color="quaternary" id="text-0"></path></svg></g></svg></g></svg></g></svg></g></svg></g></svg></g></svg></g></svg></g><defs></defs></svg><rect width="333.90454557049503" height="333.90454557049503" fill="none" stroke="none" visibility="hidden"></rect></g></svg></g></svg>